<?xml version="1.0" encoding="iso-8859-1"?>
<!-- Generator: Adobe Illustrator 19.0.0, SVG Export Plug-In . SVG Version: 6.00 Build 0)  -->
<svg version="1.1" id="Capa_1" xmlns="http://www.w3.org/2000/svg" xmlns:xlink="http://www.w3.org/1999/xlink" x="0px" y="0px"
	 viewBox="0 0 512 512" style="enable-background:new 0 0 512 512;" xml:space="preserve">
<path style="fill:#FFAB15;" d="M341.713,0H170.287L81.5,88.787v334.427L170.287,512h171.426l88.787-88.787V88.787L341.713,0z"/>
<polygon style="fill:#FF9400;" points="341.713,0 256,0 256,512 341.713,512 430.5,423.213 430.5,88.787 "/>
<path style="fill:#FFDC40;" d="M400.5,117.449v-16.236l-11.481-11.481l-60,24.853l-13.105-13.105l24.853-60L329.287,30h-16.236
	l-24.853,60h-64.396L198.95,30h-16.236l-11.481,11.481l24.852,60l-13.105,13.105l-60-24.853l-11.48,11.48v16.236l60,24.853v227.396
	l-60,24.853v16.236l11.481,11.481l60-24.853l13.105,13.105l-24.853,60l11.48,11.48h16.236l24.853-60h64.396l24.853,60h16.236
	l11.481-11.481l-24.852-60l13.105-13.105l60,24.853l11.481-11.481V394.55l-60-24.853V142.302L400.5,117.449z M310.5,373.507
	L292.007,392h-72.015L201.5,373.507V138.493L219.993,120h72.015l18.493,18.493v235.014H310.5z"/>
<polygon style="fill:#FFAB15;" points="400.5,117.449 400.5,101.213 389.019,89.733 329.019,114.585 315.915,101.48 340.767,41.481 
	329.287,30 313.051,30 288.198,90 256,90 256,120 292.007,120 310.5,138.493 310.5,373.507 292.007,392 256,392 256,422 
	288.198,422 313.05,482 329.286,482 340.767,470.519 315.915,410.52 329.019,397.415 389.019,422.267 400.5,410.787 400.5,394.551 
	340.5,369.698 340.5,142.302 "/>
<g>
</g>
<g>
</g>
<g>
</g>
<g>
</g>
<g>
</g>
<g>
</g>
<g>
</g>
<g>
</g>
<g>
</g>
<g>
</g>
<g>
</g>
<g>
</g>
<g>
</g>
<g>
</g>
<g>
</g>
</svg>
